[Header]
# KeyWord<space>Value<CR>FileType htr
DataType HTRS
FileVersion 1.0
NumSegments 32
NumFrames 4
DataFrameRate 24
EulerRotationOrder XYZ
CalibrationUnits m
RotationUnits Degrees
GlobalAxisofGravity Z
BoneLengthAxis Z
BoneLengthAxis Z
ScaleFactor 1.00
[SegmentNames&Hierarchy]
# ObjectName<tab>ParentObjectName<CR>
pelvis	GLOBAL
spine01	pelvis
spine02	spine01
spine03	spine02
neck	spine03
head	neck
Collar_left	spine03
shoulder_up_left	Collar_left
bicep_up_left	shoulder_up_left
forearm_up_left	bicep_up_left
hand_up_left	forearm_up_left
shoulder_down_left	Collar_left
bicep_down_left	shoulder_down_left
forearm_down_left	bicep_down_left
hand_down_left	forearm_down_left
Collar_right	spine03
shoulder_up_right	Collar_right
bicep_up_right	shoulder_up_right
forearm_up_right	bicep_up_right
hand_up_right	forearm_up_right
shoulder_down_right	Collar_right
bicep_down_right	shoulder_down_right
forearm_down_right	bicep_down_right
hand_down_right	forearm_down_right
hip_left	pelvis
thigh_left	hip_left
shin_left	thigh_left
foot_left	shin_left
hip_right	pelvis
thigh_right	hip_right
shin_right	thigh_right
foot_right	shin_right
[BasePosition]
# ObjectName<tab>Tx<tab>Ty<tab>Tz<tab>Rx<tab>Ry<tab>Rz<tab>BoneLength<CR>
pelvis	0.000000	-0.438872	6.292977	90.000003	-0.000000	0.000000	1.000000
spine01	0.000000	-0.438872	7.970248	90.000003	-0.000000	0.000000	1.000000
spine02	0.000000	-0.438872	10.340697	90.000003	-0.000000	0.000000	1.000000
spine03	0.000000	-0.438872	13.021563	90.000003	-0.000000	0.000000	1.000000
neck	0.000000	-0.438872	16.182161	90.000003	-0.000000	0.000000	1.000000
head	0.000000	-0.438872	17.452044	90.000003	-0.000000	0.000014	1.000000
Collar_left	0.000000	-0.438872	16.182161	114.324943	-109.283163	-3.448282	1.000000
shoulder_up_left	-2.246972	-1.353188	15.416688	89.999955	-101.168646	0.000051	1.000000
bicep_up_left	-4.544489	-1.353188	14.963074	94.597615	-95.170613	-0.305692	1.000000
forearm_up_left	-8.587797	-1.657960	14.597347	85.600206	-93.126604	-0.279561	1.000000
hand_up_left	-12.306015	-1.353188	14.394166	85.300436	-97.657908	-0.750653	1.000000
shoulder_down_left	-2.246972	-1.353188	15.416688	97.171845	-144.053812	-0.627842	1.000000
bicep_down_left	-4.260035	-1.761673	12.646806	95.982825	-137.161086	0.000016	1.000000
forearm_down_left	-6.332484	-2.081106	10.411811	78.293864	-138.751741	0.000033	1.000000
hand_down_left	-8.648752	-1.353187	7.770453	89.999989	-141.340205	0.000017	1.000000
Collar_right	0.000000	-0.438872	16.182161	114.324943	109.283163	3.448282	1.000000
shoulder_up_right	2.246972	-1.353188	15.416688	89.999955	101.168646	-0.000051	1.000000
bicep_up_right	4.544489	-1.353188	14.963074	94.597615	95.170613	0.305692	1.000000
forearm_up_right	8.587797	-1.657960	14.597347	85.600206	93.126604	0.279561	1.000000
hand_up_right	12.306015	-1.353188	14.394166	85.300436	97.657908	0.750653	1.000000
shoulder_down_right	2.246972	-1.353188	15.416688	97.171845	144.053812	0.627842	1.000000
bicep_down_right	4.260035	-1.761673	12.646806	95.982825	137.161086	-0.000016	1.000000
forearm_down_right	6.332484	-2.081106	10.411811	78.293864	138.751741	-0.000033	1.000000
hand_down_right	8.648752	-1.353187	7.770453	89.999989	141.340205	-0.000017	1.000000
hip_left	0.000000	-0.438872	6.292977	-6.241914	-0.000005	89.999996	1.000000
thigh_left	-2.600721	-0.438872	6.008523	-79.303489	-0.000003	90.000003	1.000000
shin_left	-3.000499	-0.438872	3.892051	-90.969439	1.681318	89.968611	1.000000
foot_left	-2.953466	-0.520526	1.111133	-93.081914	-75.718200	93.179995	1.000000
hip_right	0.000000	-0.438872	6.292977	-6.241914	0.000005	-89.999996	1.000000
thigh_right	2.600721	-0.438872	6.008523	-79.303489	0.000003	-90.000003	1.000000
shin_right	3.000499	-0.438872	3.892051	-90.969439	-1.681318	-89.968611	1.000000
foot_right	2.953466	-0.520526	1.111133	-93.081914	75.718200	-93.179995	1.000000
[pelvis]
# Tx<tab>Ty<tab>Tz<tab>Rx<tab>Ry<tab>Rz<tab>BoneScaleFactor<CR>
19	0.000000	0.000000	0.000000	0.000000	-0.000000	0.000000	1.000000
20	0.000000	0.000000	0.000000	0.000000	-0.000000	0.000000	1.000000
21	0.000000	0.000000	0.000000	0.000000	-0.000000	0.000000	1.000000
22	0.000000	0.000000	0.000000	0.000000	-0.000000	0.000000	1.000000
[spine01]
# Tx<tab>Ty<tab>Tz<tab>Rx<tab>Ry<tab>Rz<tab>BoneScaleFactor<CR>
19	0.000000	0.000000	0.000000	-10.983813	-0.000000	0.000000	1.000000
20	0.000000	0.000000	0.000000	-11.758572	-0.000000	0.000000	1.000000
21	0.000000	0.000000	0.000000	-12.497110	-0.000000	0.000000	1.000000
22	0.000000	0.000000	0.000000	-13.191445	-0.000000	0.000000	1.000000
[spine02]
# Tx<tab>Ty<tab>Tz<tab>Rx<tab>Ry<tab>Rz<tab>BoneScaleFactor<CR>
19	0.000000	0.000000	0.000000	-13.479216	-0.000000	0.000000	1.000000
20	0.000000	0.000000	0.000000	-14.430223	-0.000000	0.000000	1.000000
21	0.000000	0.000000	0.000000	-15.336567	-0.000000	0.000000	1.000000
22	0.000000	0.000000	0.000000	-16.188453	-0.000000	0.000000	1.000000
[spine03]
# Tx<tab>Ty<tab>Tz<tab>Rx<tab>Ry<tab>Rz<tab>BoneScaleFactor<CR>
19	0.000000	0.000000	0.000000	-10.412991	-0.000000	0.000000	1.000000
20	0.000000	0.000000	0.000000	-11.147458	-0.000000	0.000000	1.000000
21	0.000000	0.000000	0.000000	-11.847610	-0.000000	0.000000	1.000000
22	0.000000	0.000001	0.000000	-12.505890	-0.000000	0.000000	1.000000
[neck]
# Tx<tab>Ty<tab>Tz<tab>Rx<tab>Ry<tab>Rz<tab>BoneScaleFactor<CR>
19	0.000000	0.000000	0.000000	0.000000	-0.000000	0.000000	1.000000
20	0.000000	0.000000	-0.000000	-0.000002	-0.000000	0.000000	1.000000
21	0.000000	0.000000	0.000000	-0.000002	-0.000000	0.000000	1.000000
22	0.000000	0.000000	0.000000	0.000000	-0.000000	0.000000	1.000000
[head]
# Tx<tab>Ty<tab>Tz<tab>Rx<tab>Ry<tab>Rz<tab>BoneScaleFactor<CR>
19	0.000000	0.000000	-0.000000	-1.768864	-0.000000	-0.000000	1.000000
20	0.000000	0.000000	-0.000001	-1.893581	-0.000000	-0.000000	1.000000
21	-0.000000	0.000000	0.000000	-2.012510	-0.000000	0.000000	1.000000
22	0.000000	-0.000001	-0.000000	-2.124375	-0.000000	0.000000	1.000000
[Collar_left]
# Tx<tab>Ty<tab>Tz<tab>Rx<tab>Ry<tab>Rz<tab>BoneScaleFactor<CR>
19	0.000000	0.000000	-0.000000	0.000002	0.000002	0.000001	1.000000
20	0.000001	-0.000000	0.000000	-0.000001	0.000002	-0.000001	1.000000
21	0.000002	0.000000	0.000000	-0.000000	0.000002	0.000001	1.000000
22	0.000001	0.000000	-0.000001	0.000002	0.000002	-0.000000	1.000000
[shoulder_up_left]
# Tx<tab>Ty<tab>Tz<tab>Rx<tab>Ry<tab>Rz<tab>BoneScaleFactor<CR>
19	0.000001	-0.000000	-0.000000	-0.000001	-0.000000	-26.023212	1.000000
20	-0.000001	0.000000	0.000000	0.000000	-0.000002	-27.862717	1.000000
21	0.000000	0.000000	-0.000000	0.000001	-0.000000	-29.612791	1.000000
22	0.000001	-0.000000	-0.000001	-0.000001	0.000002	-31.254468	1.000000
[bicep_up_left]
# Tx<tab>Ty<tab>Tz<tab>Rx<tab>Ry<tab>Rz<tab>BoneScaleFactor<CR>
19	0.000000	0.000001	0.000000	0.000002	-0.000002	0.000000	1.000000
20	0.000000	-0.000001	0.000000	0.000000	-0.000002	0.000000	1.000000
21	0.000001	0.000001	0.000000	0.000001	-0.000003	0.000002	1.000000
22	0.000000	0.000000	0.000000	0.000000	-0.000002	-0.000002	1.000000
[forearm_up_left]
# Tx<tab>Ty<tab>Tz<tab>Rx<tab>Ry<tab>Rz<tab>BoneScaleFactor<CR>
19	-0.000002	0.000000	0.000000	0.000000	0.000002	0.000000	1.000000
20	0.000000	0.000001	-0.000001	-0.000002	0.000003	0.000000	1.000000
21	-0.000001	0.000000	0.000000	-0.000001	0.000003	-0.000001	1.000000
22	0.000000	0.000002	0.000000	-0.000003	0.000002	-0.000001	1.000000
[hand_up_left]
# Tx<tab>Ty<tab>Tz<tab>Rx<tab>Ry<tab>Rz<tab>BoneScaleFactor<CR>
19	0.000000	0.000001	0.000000	-1.095728	-26.936569	-4.799910	1.000000
20	0.000001	0.000000	0.000000	-1.084743	-28.843199	-5.156395	1.000000
21	-0.000001	0.000000	-0.000001	-1.061303	-30.656587	-5.502197	1.000000
22	0.000000	0.000000	0.000001	-1.027143	-32.356983	-5.833433	1.000000
[shoulder_down_left]
# Tx<tab>Ty<tab>Tz<tab>Rx<tab>Ry<tab>Rz<tab>BoneScaleFactor<CR>
19	0.000000	0.000001	0.000001	-0.000002	-0.000003	0.000002	1.000000
20	0.000000	-0.000001	0.000000	0.000000	-0.000002	0.000000	1.000000
21	0.000000	-0.000001	0.000000	0.000002	0.000002	-0.000003	1.000000
22	0.000000	0.000000	0.000000	0.000000	-0.000000	0.000000	1.000000
[bicep_down_left]
# Tx<tab>Ty<tab>Tz<tab>Rx<tab>Ry<tab>Rz<tab>BoneScaleFactor<CR>
19	0.000002	-0.000001	0.000000	-25.831079	-21.069114	7.285469	1.000000
20	0.000000	0.000000	0.000000	-27.884884	-22.401883	8.211524	1.000000
21	-0.000001	0.000001	0.000000	-29.876214	-23.638399	9.147451	1.000000
22	-0.000001	-0.000001	-0.000001	-31.778425	-24.768339	10.074527	1.000000
[forearm_down_left]
# Tx<tab>Ty<tab>Tz<tab>Rx<tab>Ry<tab>Rz<tab>BoneScaleFactor<CR>
19	0.000000	0.000000	0.000000	-17.473699	-15.244844	-0.795428	1.000000
20	0.000001	0.000000	0.000000	-18.742524	-16.320778	-0.669976	1.000000
21	-0.000001	0.000001	-0.000000	-19.959233	-17.342166	-0.526744	1.000000
22	0.000001	-0.000001	0.000000	-21.110008	-18.297962	-0.370812	1.000000
[hand_down_left]
# Tx<tab>Ty<tab>Tz<tab>Rx<tab>Ry<tab>Rz<tab>BoneScaleFactor<CR>
19	0.000000	0.000000	-0.000000	0.000000	0.000001	0.000002	1.000000
20	-0.000001	0.000000	0.000000	-0.000002	-0.000000	-0.000002	1.000000
21	0.000000	0.000000	-0.000000	0.000000	0.000001	0.000002	1.000000
22	-0.000001	-0.000000	-0.000000	0.000002	0.000002	0.000003	1.000000
[Collar_right]
# Tx<tab>Ty<tab>Tz<tab>Rx<tab>Ry<tab>Rz<tab>BoneScaleFactor<CR>
19	0.000000	0.000000	-0.000000	0.000002	-0.000002	-0.000001	1.000000
20	-0.000001	-0.000000	0.000000	-0.000001	-0.000002	0.000001	1.000000
21	-0.000002	0.000000	0.000000	-0.000000	-0.000002	-0.000001	1.000000
22	-0.000001	0.000000	-0.000001	0.000002	-0.000002	0.000000	1.000000
[shoulder_up_right]
# Tx<tab>Ty<tab>Tz<tab>Rx<tab>Ry<tab>Rz<tab>BoneScaleFactor<CR>
19	-0.000001	-0.000000	-0.000000	3.908845	0.044934	29.268016	1.000000
20	0.000001	0.000000	0.000000	4.178844	-0.027468	31.337519	1.000000
21	0.000000	0.000000	-0.000000	4.432958	-0.105296	33.304726	1.000000
22	-0.000001	-0.000000	-0.000001	4.668589	-0.186130	35.148311	1.000000
[bicep_up_right]
# Tx<tab>Ty<tab>Tz<tab>Rx<tab>Ry<tab>Rz<tab>BoneScaleFactor<CR>
19	-0.000001	0.000000	0.000000	-0.000001	-0.000002	0.000000	1.000000
20	0.000000	0.000000	-0.000000	0.000000	0.000002	-0.000002	1.000000
21	-0.000001	0.000001	0.000000	-0.000002	0.000002	0.000002	1.000000
22	0.000001	-0.000002	0.000000	0.000000	-0.000000	0.000000	1.000000
[forearm_up_right]
# Tx<tab>Ty<tab>Tz<tab>Rx<tab>Ry<tab>Rz<tab>BoneScaleFactor<CR>
19	0.000000	0.000000	0.000000	-23.608259	-14.227515	18.133153	1.000000
20	-0.000001	0.000001	0.000000	-25.480495	-14.923738	19.655737	1.000000
21	0.000000	0.000000	-0.000001	-27.282578	-15.540168	21.128430	1.000000
22	-0.000001	0.000001	-0.000001	-28.990297	-16.076699	22.529878	1.000000
[hand_up_right]
# Tx<tab>Ty<tab>Tz<tab>Rx<tab>Ry<tab>Rz<tab>BoneScaleFactor<CR>
19	0.000000	-0.000001	0.000000	3.435924	38.463896	3.832787	1.000000
20	-0.000000	0.000000	0.000004	3.873831	41.179689	4.292965	1.000000
21	0.000000	0.000001	0.000000	4.335030	43.753225	4.774851	1.000000
22	-0.000000	-0.000001	0.000000	4.813569	46.156574	5.272374	1.000000
[shoulder_down_right]
# Tx<tab>Ty<tab>Tz<tab>Rx<tab>Ry<tab>Rz<tab>BoneScaleFactor<CR>
19	0.000000	0.000001	0.000001	-0.000002	0.000003	-0.000002	1.000000
20	0.000000	-0.000001	0.000000	0.000000	0.000002	0.000000	1.000000
21	0.000000	-0.000001	0.000000	0.000002	-0.000002	0.000003	1.000000
22	0.000000	0.000000	0.000000	0.000000	-0.000000	0.000000	1.000000
[bicep_down_right]
# Tx<tab>Ty<tab>Tz<tab>Rx<tab>Ry<tab>Rz<tab>BoneScaleFactor<CR>
19	-0.000002	-0.000001	0.000000	-25.831079	21.069114	-7.285469	1.000000
20	0.000000	0.000000	0.000000	-27.884884	22.401883	-8.211524	1.000000
21	0.000001	0.000001	0.000000	-29.876214	23.638399	-9.147451	1.000000
22	0.000001	-0.000001	-0.000001	-31.778425	24.768339	-10.074527	1.000000
[forearm_down_right]
# Tx<tab>Ty<tab>Tz<tab>Rx<tab>Ry<tab>Rz<tab>BoneScaleFactor<CR>
19	0.000000	0.000000	0.000000	-17.473699	15.244844	0.795428	1.000000
20	-0.000001	0.000000	0.000000	-18.742524	16.320778	0.669976	1.000000
21	0.000001	0.000001	-0.000000	-19.959233	17.342166	0.526744	1.000000
22	-0.000001	-0.000001	0.000000	-21.110008	18.297962	0.370812	1.000000
[hand_down_right]
# Tx<tab>Ty<tab>Tz<tab>Rx<tab>Ry<tab>Rz<tab>BoneScaleFactor<CR>
19	0.000000	0.000000	-0.000000	0.000000	-0.000001	-0.000002	1.000000
20	0.000001	0.000000	0.000000	-0.000002	-0.000000	0.000002	1.000000
21	0.000000	0.000000	-0.000000	0.000000	-0.000001	-0.000002	1.000000
22	0.000001	-0.000000	-0.000000	0.000002	-0.000002	-0.000003	1.000000
[hip_left]
# Tx<tab>Ty<tab>Tz<tab>Rx<tab>Ry<tab>Rz<tab>BoneScaleFactor<CR>
19	0.000000	-0.000000	0.000000	0.000000	-0.000000	-0.000000	1.000000
20	0.000000	-0.000000	0.000000	0.000000	-0.000000	-0.000000	1.000000
21	0.000000	-0.000000	0.000000	0.000000	-0.000000	-0.000000	1.000000
22	0.000000	-0.000000	0.000000	0.000000	-0.000000	-0.000000	1.000000
[thigh_left]
# Tx<tab>Ty<tab>Tz<tab>Rx<tab>Ry<tab>Rz<tab>BoneScaleFactor<CR>
19	0.000000	-0.000000	0.000000	0.000001	-0.000000	0.000000	1.000000
20	0.000000	-0.000000	0.000000	0.000001	-0.000000	0.000000	1.000000
21	0.000000	-0.000000	0.000000	0.000001	-0.000000	0.000000	1.000000
22	0.000000	-0.000000	0.000000	0.000001	-0.000000	0.000000	1.000000
[shin_left]
# Tx<tab>Ty<tab>Tz<tab>Rx<tab>Ry<tab>Rz<tab>BoneScaleFactor<CR>
19	0.000000	-0.000000	0.000000	0.000000	0.000000	-0.000000	1.000000
20	0.000000	-0.000000	0.000000	0.000000	0.000000	-0.000000	1.000000
21	0.000000	-0.000000	0.000000	0.000000	0.000000	-0.000000	1.000000
22	0.000000	-0.000000	0.000000	0.000000	0.000000	-0.000000	1.000000
[foot_left]
# Tx<tab>Ty<tab>Tz<tab>Rx<tab>Ry<tab>Rz<tab>BoneScaleFactor<CR>
19	0.000000	-0.000000	0.000000	-0.000000	-0.000000	0.000000	1.000000
20	0.000000	-0.000000	0.000000	-0.000000	-0.000000	0.000000	1.000000
21	0.000000	-0.000000	0.000000	-0.000000	-0.000000	0.000000	1.000000
22	0.000000	-0.000000	0.000000	-0.000000	-0.000000	0.000000	1.000000
[hip_right]
# Tx<tab>Ty<tab>Tz<tab>Rx<tab>Ry<tab>Rz<tab>BoneScaleFactor<CR>
19	-0.000000	-0.000000	0.000000	0.000000	0.000000	0.000000	1.000000
20	-0.000000	-0.000000	0.000000	0.000000	0.000000	0.000000	1.000000
21	-0.000000	-0.000000	0.000000	0.000000	0.000000	0.000000	1.000000
22	-0.000000	-0.000000	0.000000	0.000000	0.000000	0.000000	1.000000
[thigh_right]
# Tx<tab>Ty<tab>Tz<tab>Rx<tab>Ry<tab>Rz<tab>BoneScaleFactor<CR>
19	-0.000000	-0.000000	0.000000	0.000001	0.000000	-0.000000	1.000000
20	-0.000000	-0.000000	0.000000	0.000001	0.000000	-0.000000	1.000000
21	-0.000000	-0.000000	0.000000	0.000001	0.000000	-0.000000	1.000000
22	-0.000000	-0.000000	0.000000	0.000001	0.000000	-0.000000	1.000000
[shin_right]
# Tx<tab>Ty<tab>Tz<tab>Rx<tab>Ry<tab>Rz<tab>BoneScaleFactor<CR>
19	0.000000	-0.000000	0.000000	0.000000	-0.000000	0.000000	1.000000
20	0.000000	-0.000000	0.000000	0.000000	-0.000000	0.000000	1.000000
21	0.000000	-0.000000	0.000000	0.000000	-0.000000	0.000000	1.000000
22	0.000000	-0.000000	0.000000	0.000000	-0.000000	0.000000	1.000000
[foot_right]
# Tx<tab>Ty<tab>Tz<tab>Rx<tab>Ry<tab>Rz<tab>BoneScaleFactor<CR>
19	-0.000000	-0.000000	0.000000	-0.000000	-0.000000	0.000000	1.000000
20	-0.000000	-0.000000	0.000000	-0.000000	-0.000000	0.000000	1.000000
21	-0.000000	-0.000000	0.000000	-0.000000	-0.000000	0.000000	1.000000
22	-0.000000	-0.000000	0.000000	-0.000000	-0.000000	0.000000	1.000000
[EndOfFile]
